<svg width="269" height="84" viewBox="0 0 269 84" fill="none" xmlns="http://www.w3.org/2000/svg">
<path fill-rule="evenodd" clip-rule="evenodd" d="M55.6179 19.0322C54.1446 19.0322 52.7752 18.7982 51.5099 18.3302C50.2619 17.8622 49.1786 17.2035 48.2599 16.3542C47.3412 15.4875 46.6219 14.4735 46.1019 13.3122C45.5992 12.1508 45.3479 10.8855 45.3479 9.51612C45.3479 8.12943 45.5992 6.86408 46.1019 5.72007C46.6219 4.55872 47.3412 3.55338 48.2599 2.70403C49.1786 1.83735 50.2619 1.17001 51.5099 0.702009C52.7752 0.234003 54.1446 0 55.6179 0C57.1086 0 58.4779 0.234003 59.7259 0.702009C60.9739 1.17001 62.0572 1.83735 62.9759 2.70403C63.8946 3.55338 64.6052 4.55872 65.1079 5.72007C65.6279 6.86408 65.8879 8.12943 65.8879 9.51612C65.8879 10.8855 65.6279 12.1508 65.1079 13.3122C64.6052 14.4735 63.8946 15.4875 62.9759 16.3542C62.0572 17.2035 60.9739 17.8622 59.7259 18.3302C58.4779 18.7982 57.1086 19.0322 55.6179 19.0322ZM55.5338 13.4768C57.5375 13.4768 59.1617 11.6495 59.1617 9.39535C59.1617 7.14123 57.5375 5.3139 55.5338 5.3139C53.5302 5.3139 51.9059 7.14123 51.9059 9.39535C51.9059 11.6495 53.5302 13.4768 55.5338 13.4768Z" fill="white"/>
<path d="M23.1839 18.5076L17.3599 0.307617H23.6779L27.3839 12.6736H24.2119L29.2039 0.307617H34.8459L39.4999 12.6736H36.4579L40.3719 0.307617H46.1959L40.3719 18.5076H34.7939L30.9979 5.92362H32.7659L28.7619 18.5076H23.1839Z" fill="white"/>
<path d="M5.33 18.5076V5.06562H0V0.307617H16.796V5.06562H11.466V18.5076H5.33Z" fill="white"/>
<path d="M163.222 19.032C161.696 19.032 160.223 18.8587 158.802 18.512C157.38 18.1653 156.21 17.7147 155.292 17.16L157.268 12.688C158.134 13.1907 159.096 13.598 160.154 13.91C161.228 14.2047 162.268 14.352 163.274 14.352C163.863 14.352 164.322 14.3173 164.652 14.248C164.998 14.1613 165.25 14.0487 165.406 13.91C165.562 13.754 165.64 13.572 165.64 13.364C165.64 13.0347 165.458 12.7747 165.094 12.584C164.73 12.3933 164.244 12.2373 163.638 12.116C163.048 11.9773 162.398 11.8387 161.688 11.7C160.977 11.544 160.258 11.3447 159.53 11.102C158.819 10.8593 158.16 10.5387 157.554 10.14C156.964 9.74133 156.488 9.22133 156.124 8.58C155.76 7.92133 155.578 7.10667 155.578 6.136C155.578 5.00933 155.89 3.98667 156.514 3.068C157.155 2.132 158.1 1.38667 159.348 0.832C160.613 0.277333 162.182 0 164.054 0C165.284 0 166.498 0.13 167.694 0.39C168.89 0.65 169.964 1.04867 170.918 1.586L169.072 6.032C168.17 5.58133 167.295 5.24333 166.446 5.018C165.614 4.79267 164.799 4.68 164.002 4.68C163.412 4.68 162.944 4.732 162.598 4.836C162.251 4.94 162 5.07867 161.844 5.252C161.705 5.42533 161.636 5.616 161.636 5.824C161.636 6.136 161.818 6.38733 162.182 6.578C162.546 6.75133 163.022 6.89867 163.612 7.02C164.218 7.14133 164.877 7.27133 165.588 7.41C166.316 7.54867 167.035 7.73933 167.746 7.982C168.456 8.22467 169.106 8.54533 169.696 8.944C170.302 9.34267 170.788 9.86267 171.152 10.504C171.516 11.1453 171.698 11.9427 171.698 12.896C171.698 14.0053 171.377 15.028 170.736 15.964C170.112 16.8827 169.176 17.628 167.928 18.2C166.68 18.7547 165.111 19.032 163.222 19.032Z" fill="white"/>
<path d="M133.352 18.8162V0.616211H139.605L144.769 8.56798H142.117L147.375 0.616211H153.628L153.68 18.8162H147.485L147.433 7.83091H148.317L143.784 15.9689H143.196L138.152 7.83091H139.244V18.8162H133.352Z" fill="white"/>
<path fill-rule="evenodd" clip-rule="evenodd" d="M121.618 19.1406C120.145 19.1406 118.775 18.9066 117.51 18.4386C116.262 17.9706 115.179 17.3119 114.26 16.4626C113.341 15.5959 112.622 14.5819 112.102 13.4206C111.599 12.2592 111.348 10.9939 111.348 9.62451C111.348 8.23783 111.599 6.97248 112.102 5.82847C112.622 4.66712 113.341 3.66177 114.26 2.81243C115.179 1.94575 116.262 1.27841 117.51 0.810407C118.775 0.342401 120.145 0.108398 121.618 0.108398C123.109 0.108398 124.478 0.342401 125.726 0.810407C126.974 1.27841 128.057 1.94575 128.976 2.81243C129.895 3.66177 130.605 4.66712 131.108 5.82847C131.628 6.97248 131.888 8.23783 131.888 9.62451C131.888 10.9939 131.628 12.2592 131.108 13.4206C130.605 14.5819 129.895 15.5959 128.976 16.4626C128.057 17.3119 126.974 17.9706 125.726 18.4386C124.478 18.9066 123.109 19.1406 121.618 19.1406ZM121.534 13.5852C123.537 13.5852 125.162 11.7579 125.162 9.50375C125.162 7.24963 123.537 5.4223 121.534 5.4223C119.53 5.4223 117.906 7.24963 117.906 9.50375C117.906 11.7579 119.53 13.5852 121.534 13.5852Z" fill="white"/>
<path fill-rule="evenodd" clip-rule="evenodd" d="M100.618 19.1406C99.1446 19.1406 97.7752 18.9066 96.5099 18.4386C95.2619 17.9706 94.1786 17.3119 93.2599 16.4626C92.3412 15.5959 91.6219 14.5819 91.1019 13.4206C90.5992 12.2592 90.3479 10.9939 90.3479 9.62451C90.3479 8.23783 90.5992 6.97248 91.1019 5.82847C91.6219 4.66712 92.3412 3.66177 93.2599 2.81243C94.1786 1.94575 95.2619 1.27841 96.5099 0.810407C97.7752 0.342401 99.1446 0.108398 100.618 0.108398C102.109 0.108398 103.478 0.342401 104.726 0.810407C105.974 1.27841 107.057 1.94575 107.976 2.81243C108.895 3.66177 109.605 4.66712 110.108 5.82847C110.628 6.97248 110.888 8.23783 110.888 9.62451C110.888 10.9939 110.628 12.2592 110.108 13.4206C109.605 14.5819 108.895 15.5959 107.976 16.4626C107.057 17.3119 105.974 17.9706 104.726 18.4386C103.478 18.9066 102.109 19.1406 100.618 19.1406ZM100.534 13.5852C102.537 13.5852 104.162 11.7579 104.162 9.50375C104.162 7.24963 102.537 5.4223 100.534 5.4223C98.5302 5.4223 96.9059 7.24963 96.9059 9.50375C96.9059 11.7579 98.5302 13.5852 100.534 13.5852Z" fill="white"/>
<path d="M73.3779 18.616V0.416016H82.1399C83.8386 0.416016 85.3033 0.693349 86.5339 1.24802C87.7819 1.80268 88.7439 2.60002 89.4199 3.64002C90.0959 4.66268 90.4339 5.87602 90.4339 7.28002C90.4339 8.68402 90.0959 9.89735 89.4199 10.92C88.7439 11.9254 87.7819 12.6967 86.5339 13.234C85.3033 13.7713 83.8386 14.04 82.1399 14.04H76.7839L79.5139 11.518V18.616H73.3779ZM84.2719 18.616L79.7999 11.986H86.2999L90.8239 18.616H84.2719ZM79.5139 12.194L76.7839 9.41202H81.7499C82.5993 9.41202 83.2233 9.22135 83.6219 8.84002C84.0379 8.45868 84.2459 7.93868 84.2459 7.28002C84.2459 6.62135 84.0379 6.10135 83.6219 5.72002C83.2233 5.33868 82.5993 5.14802 81.7499 5.14802H76.7839L79.5139 2.36602V12.194Z" fill="white"/>
<path d="M201.21 83.9998V23.7998H221.894L238.974 50.1018H230.202L247.594 23.7998H268.278L268.45 83.9998H247.96L247.788 47.6638H250.712L235.716 74.5818H233.772L217.088 47.6638H220.7V83.9998H201.21Z" fill="white"/>
<path fill-rule="evenodd" clip-rule="evenodd" d="M95.7261 83.9992C91.0658 83.9992 86.7345 83.259 82.7322 81.7787C78.7846 80.2984 75.3579 78.215 72.4521 75.5285C69.5463 72.7872 67.271 69.5799 65.6262 65.9065C64.0362 62.2331 63.2412 58.2308 63.2412 53.8995C63.2412 49.5134 64.0362 45.5111 65.6262 41.8925C67.271 38.2191 69.5463 35.0392 72.4521 32.3527C75.3579 29.6114 78.7846 27.5006 82.7322 26.0203C86.7345 24.54 91.0658 23.7998 95.7261 23.7998C100.441 23.7998 104.773 24.54 108.72 26.0203C112.668 27.5006 116.094 29.6114 119 32.3527C121.906 35.0392 124.154 38.2191 125.744 41.8925C127.389 45.5111 128.211 49.5134 128.211 53.8995C128.211 58.2308 127.389 62.2331 125.744 65.9065C124.154 69.5799 121.906 72.7872 119 75.5285C116.094 78.215 112.668 80.2984 108.72 81.7787C104.773 83.259 100.441 83.9992 95.7261 83.9992ZM95.4602 66.4269C101.798 66.4269 106.936 60.647 106.936 53.5172C106.936 46.3873 101.798 40.6074 95.4602 40.6074C89.1225 40.6074 83.9848 46.3873 83.9848 53.5172C83.9848 60.647 89.1225 66.4269 95.4602 66.4269Z" fill="white"/>
<path d="M0.797974 83.9998V23.7998H32.962C41.2753 23.7998 47.41 25.2905 51.366 28.2718C55.322 31.1958 57.3 34.9511 57.3 39.5378C57.3 42.5765 56.44 45.2998 54.72 47.7078C53.0573 50.0585 50.6206 51.9218 47.41 53.2978C44.1993 54.6738 40.2433 55.3618 35.542 55.3618L37.262 50.7178C41.9633 50.7178 46.0053 51.3771 49.388 52.6958C52.828 54.0145 55.4653 55.9351 57.3 58.4578C59.192 60.9231 60.138 63.9045 60.138 67.4018C60.138 72.6191 57.9593 76.6898 53.602 79.6138C49.302 82.5378 42.9953 83.9998 34.682 83.9998H0.797974ZM20.75 69.8098H32.962C35.198 69.8098 36.8606 69.4085 37.95 68.6058C39.0966 67.8031 39.67 66.6278 39.67 65.0798C39.67 63.5318 39.0966 62.3565 37.95 61.5538C36.8606 60.7511 35.198 60.3498 32.962 60.3498H19.374V46.9338H30.21C32.5033 46.9338 34.166 46.5611 35.198 45.8158C36.2873 45.0131 36.832 43.8951 36.832 42.4618C36.832 40.9711 36.2873 39.8531 35.198 39.1078C34.166 38.3625 32.5033 37.9898 30.21 37.9898H20.75V69.8098Z" fill="white"/>
<path d="M247.475 18.2L255.717 0H258.291L266.559 18.2H263.829L256.471 1.456H257.511L250.153 18.2H247.475ZM250.985 13.65L251.687 11.57H261.931L262.685 13.65H250.985Z" fill="white"/>
<path d="M221.769 18.2V0H229.439C231.38 0 233.087 0.381333 234.561 1.144C236.051 1.90667 237.204 2.97267 238.019 4.342C238.851 5.71133 239.267 7.29733 239.267 9.1C239.267 10.9027 238.851 12.4887 238.019 13.858C237.204 15.2273 236.051 16.2933 234.561 17.056C233.087 17.8187 231.38 18.2 229.439 18.2H221.769ZM224.369 15.938H229.283C230.791 15.938 232.091 15.652 233.183 15.08C234.292 14.508 235.15 13.7107 235.757 12.688C236.363 11.648 236.667 10.452 236.667 9.1C236.667 7.73067 236.363 6.53467 235.757 5.512C235.15 4.48933 234.292 3.692 233.183 3.12C232.091 2.548 230.791 2.262 229.283 2.262H224.369V15.938Z" fill="white"/>
<path d="M200.669 18.2V0H202.801L214.839 14.95H213.721V0H216.321V18.2H214.189L202.151 3.25H203.269V18.2H200.669Z" fill="white"/>
<path d="M178.87 18.2L187.112 0H189.686L197.954 18.2H195.224L187.866 1.456H188.906L181.548 18.2H178.87ZM182.38 13.65L183.082 11.57H193.326L194.08 13.65H182.38Z" fill="white"/>
<path fill-rule="evenodd" clip-rule="evenodd" d="M163.622 84.0002C158.962 84.0002 154.631 83.26 150.628 81.7797C146.681 80.2994 143.254 78.216 140.348 75.5295C137.442 72.7882 135.167 69.5808 133.522 65.9075C131.932 62.2341 131.137 58.2318 131.137 53.9005C131.137 49.5144 131.932 45.512 133.522 41.8935C135.167 38.2201 137.442 35.0402 140.348 32.3537C143.254 29.6124 146.681 27.5016 150.628 26.0213C154.631 24.5409 158.962 23.8008 163.622 23.8008C168.337 23.8008 172.669 24.5409 176.616 26.0213C180.564 27.5016 183.99 29.6124 186.896 32.3537C189.802 35.0402 192.05 38.2201 193.64 41.8935C195.285 45.512 196.107 49.5144 196.107 53.9005C196.107 58.2318 195.285 62.2341 193.64 65.9075C192.05 69.5808 189.802 72.7882 186.896 75.5295C183.99 78.216 180.564 80.2994 176.616 81.7797C172.669 83.26 168.337 84.0002 163.622 84.0002ZM163.356 66.4282C169.694 66.4282 174.832 60.6484 174.832 53.5185C174.832 46.3887 169.694 40.6088 163.356 40.6088C157.019 40.6088 151.881 46.3887 151.881 53.5185C151.881 60.6484 157.019 66.4282 163.356 66.4282Z" fill="white"/>
</svg>
